<svg preserveAspectRatio="none" width="100%" height="100%" overflow="visible" style="display: block;" viewBox="0 0 16 16" fill="none" xmlns="http://www.w3.org/2000/svg">
<g id="electric_vehicle">
<path id="Union" fill-rule="evenodd" clip-rule="evenodd" d="M9.6943 2.49873L7.9243 6.04248L7.4818 4.26873H6.1543L7.9243 0.724976L8.3668 2.49873H9.6943ZM12.8254 3.43252L13.8741 6.92323C14.4299 7.07516 14.845 7.58284 14.8375 8.18686V12.1259C14.8375 12.6077 14.4448 13.0005 13.963 13.0005V13.4377C13.963 14.1603 13.3738 14.7495 12.6512 14.7495H11.7767C11.0541 14.7495 10.4649 14.1603 10.4649 13.4377V13.0005H5.2103V13.4377C5.2103 14.1603 4.6211 14.7495 3.8985 14.7495H3.02397C2.30137 14.7495 1.71218 14.1603 1.71218 13.4377V13.0005C1.23044 13.0005 0.837646 12.6077 0.837646 12.1259V8.18686C0.837646 7.58284 1.25268 7.07516 1.81223 6.92323L2.86093 3.43252C3.02768 2.87297 3.53165 2.495 4.11714 2.495H5.21401V3.36953H4.11343C3.92074 3.36953 3.75028 3.49552 3.69469 3.6808L2.73864 6.87135H12.944L11.9879 3.6808C11.9323 3.49552 11.7656 3.36953 11.5692 3.36953H10.4686V2.495H11.5692C12.151 2.495 12.6586 2.87297 12.8254 3.43252ZM3.90221 13.8787C4.14308 13.8787 4.33947 13.6823 4.33947 13.4415V13.0042H2.59041V13.4415C2.59041 13.6823 2.78681 13.8787 3.02768 13.8787H3.90221ZM12.6586 13.8787C12.8995 13.8787 13.0959 13.6823 13.0959 13.4415V13.0042H11.3468V13.4415C11.3468 13.6823 11.5432 13.8787 11.7841 13.8787H12.6586ZM13.9667 12.1259H1.71218V8.18686C1.71218 7.94599 1.90858 7.74959 2.14944 7.74959H13.5295C13.7703 7.74959 13.9667 7.94599 13.9667 8.18686V12.1259ZM3.99938 8.96753C3.26813 8.96753 2.67188 9.56378 2.67188 10.295C2.67188 11.0263 3.26813 11.6225 3.99938 11.6225C4.73063 11.6225 5.32688 11.0263 5.32688 10.295C5.32688 9.56378 4.73063 8.96753 3.99938 8.96753ZM3.99938 10.7413C3.75563 10.7413 3.55688 10.5425 3.55688 10.2988C3.55688 10.055 3.75563 9.85628 3.99938 9.85628C4.24313 9.85628 4.44188 10.055 4.44188 10.2988C4.44188 10.5425 4.24313 10.7413 3.99938 10.7413ZM12.2413 8.96753C11.5101 8.96753 10.9138 9.56378 10.9138 10.295C10.9138 11.0263 11.5101 11.6225 12.2413 11.6225C12.9726 11.6225 13.5688 11.0263 13.5688 10.295C13.5688 9.56378 12.9726 8.96753 12.2413 8.96753ZM12.2413 10.7413C11.9976 10.7413 11.7988 10.5425 11.7988 10.2988C11.7988 10.055 11.9976 9.85628 12.2413 9.85628C12.4851 9.85628 12.6838 10.055 12.6838 10.2988C12.6838 10.5425 12.4851 10.7413 12.2413 10.7413Z" fill="var(--fill-0, #00AB55)"/>
</g>
</svg>
