<svg preserveAspectRatio="none" width="100%" height="100%" overflow="visible" style="display: block;" viewBox="0 0 16 16" fill="none" xmlns="http://www.w3.org/2000/svg">
<g id="material-symbols:energy-savings-leaf-outline">
<path id="Vector" d="M8.00002 12.0003C9.11113 12.0003 10.05 11.6114 10.8167 10.8337C11.5834 10.0559 11.9778 9.11144 12 8.00033V4.00033H8.00002C6.88891 4.02255 5.94446 4.41699 5.16669 5.18366C4.38891 5.95033 4.00002 6.88921 4.00002 8.00033C4.00002 9.11144 4.38891 10.0559 5.16669 10.8337C5.94446 11.6114 6.88891 12.0003 8.00002 12.0003ZM7.21669 10.8837L10.2834 8.15033C10.3834 8.06144 10.4111 7.95588 10.3667 7.83366C10.3222 7.71144 10.2334 7.63921 10.1 7.61699L7.70002 7.38366L9.13335 5.40033C9.16669 5.34477 9.18624 5.29188 9.19202 5.24166C9.1978 5.19144 9.17824 5.14433 9.13335 5.10033C9.08891 5.04477 9.03335 5.01988 8.96669 5.02566C8.90002 5.03144 8.83891 5.05633 8.78335 5.10033L5.73335 7.83366C5.63335 7.92255 5.60558 8.0281 5.65002 8.15033C5.69447 8.27255 5.78335 8.34477 5.91669 8.36699L8.31669 8.60033L6.86669 10.5837C6.83335 10.6392 6.81669 10.6919 6.81669 10.7417C6.81669 10.7914 6.83891 10.8388 6.88335 10.8837C6.9278 10.9285 6.98069 10.9508 7.04202 10.9503C7.10335 10.9499 7.16158 10.9277 7.21669 10.8837ZM8.00002 13.3337C7.3778 13.3337 6.7918 13.2363 6.24202 13.0417C5.69224 12.847 5.18935 12.5721 4.73335 12.217L3.81669 13.1337C3.75002 13.2003 3.67513 13.2503 3.59202 13.2837C3.50891 13.317 3.42269 13.3337 3.33335 13.3337C3.14446 13.3337 2.98624 13.2697 2.85869 13.1417C2.73113 13.0137 2.66713 12.8554 2.66669 12.667C2.66669 12.5781 2.68335 12.4921 2.71669 12.409C2.75002 12.3259 2.80002 12.2508 2.86669 12.1837L3.78335 11.267C3.4278 10.8114 3.15291 10.3088 2.95869 9.75899C2.76446 9.20921 2.66713 8.62299 2.66669 8.00033C2.66669 6.51144 3.18335 5.25033 4.21669 4.21699C5.25002 3.18366 6.51113 2.66699 8.00002 2.66699H13.3334V8.00033C13.3334 9.48921 12.8167 10.7503 11.7834 11.7837C10.75 12.817 9.48891 13.3337 8.00002 13.3337Z" fill="var(--fill-0, #14843C)"/>
</g>
</svg>
