<svg preserveAspectRatio="none" width="100%" height="100%" overflow="visible" style="display: block;" viewBox="0 0 16 16" fill="none" xmlns="http://www.w3.org/2000/svg">
<g id="famicons:pricetags-outline" clip-path="url(#clip0_0_47)">
<path id="Vector" d="M12.6028 1H8.76125C8.64183 0.999913 8.52723 1.0471 8.4425 1.13125L0.7625 8.80937C0.594379 8.97832 0.499998 9.20697 0.499998 9.44531C0.499998 9.68366 0.594379 9.9123 0.7625 10.0812L4.41875 13.7375C4.58775 13.9056 4.81645 14 5.05484 14C5.29324 14 5.52194 13.9056 5.69094 13.7375L13.3687 6.0625C13.4529 5.97777 13.5001 5.86317 13.5 5.74375V1.9C13.5006 1.78189 13.4778 1.66482 13.4329 1.55555C13.3881 1.44628 13.3221 1.34696 13.2387 1.26331C13.1553 1.17966 13.0562 1.11333 12.947 1.06814C12.8379 1.02295 12.7209 0.999793 12.6028 1Z" stroke="var(--stroke-0, black)" stroke-linecap="round" stroke-linejoin="round"/>
<path id="Vector_2" d="M11 4.5C10.8022 4.5 10.6089 4.44135 10.4444 4.33147C10.28 4.22159 10.1518 4.06541 10.0761 3.88268C10.0004 3.69996 9.98063 3.49889 10.0192 3.30491C10.0578 3.11093 10.153 2.93275 10.2929 2.79289C10.4327 2.65304 10.6109 2.5578 10.8049 2.51921C10.9989 2.48063 11.2 2.50043 11.3827 2.57612C11.5654 2.65181 11.7216 2.77998 11.8315 2.94443C11.9414 3.10888 12 3.30222 12 3.5C12 3.76522 11.8946 4.01957 11.7071 4.20711C11.5196 4.39464 11.2652 4.5 11 4.5Z" fill="var(--fill-0, black)"/>
<path id="Vector_3" d="M7.1875 15L15.375 6.8125C15.4157 6.77145 15.4478 6.72263 15.4692 6.66895C15.4907 6.61526 15.5012 6.55781 15.5 6.5V2.5" stroke="var(--stroke-0, black)" stroke-linecap="round" stroke-linejoin="round"/>
</g>
<defs>
<clipPath id="clip0_0_47">
<rect width="16" height="16" fill="white"/>
</clipPath>
</defs>
</svg>
