<svg preserveAspectRatio="none" width="100%" height="100%" overflow="visible" style="display: block;" viewBox="0 0 24 24" fill="none" xmlns="http://www.w3.org/2000/svg">
<g id="majesticons:send">
<path id="Vector" fill-rule="evenodd" clip-rule="evenodd" d="M2.34581 2.24485C2.49508 2.11519 2.67944 2.03268 2.87558 2.00776C3.07173 1.98284 3.27086 2.01663 3.44781 2.10485L21.4478 11.1049C21.6142 11.1878 21.7542 11.3155 21.8521 11.4736C21.9499 11.6317 22.0017 11.8139 22.0017 11.9999C22.0017 12.1858 21.9499 12.368 21.8521 12.5261C21.7542 12.6842 21.6142 12.8119 21.4478 12.8949L3.44781 21.8949C3.27088 21.9834 3.07165 22.0174 2.87536 21.9927C2.67906 21.968 2.49451 21.8856 2.34505 21.7559C2.1956 21.6263 2.08797 21.4552 2.03577 21.2644C1.98357 21.0736 1.98915 20.8715 2.05181 20.6839L4.61381 12.9999H10.0008C10.266 12.9999 10.5204 12.8945 10.7079 12.707C10.8955 12.5194 11.0008 12.2651 11.0008 11.9999C11.0008 11.7346 10.8955 11.4803 10.7079 11.2927C10.5204 11.1052 10.266 10.9999 10.0008 10.9999H4.61381L2.05081 3.31585C1.98847 3.12826 1.98313 2.92641 2.03546 2.73579C2.08779 2.54516 2.19644 2.37433 2.34581 2.24485Z" fill="var(--fill-0, white)"/>
</g>
</svg>
