<svg preserveAspectRatio="none" width="100%" height="100%" overflow="visible" style="display: block;" viewBox="0 0 15.75 15.75" fill="none" xmlns="http://www.w3.org/2000/svg">
<g id="solar 1" clip-path="url(#clip0_0_25)">
<path id="Vector" d="M7.87506 3.19204C8.14168 3.19204 8.35792 2.97571 8.35792 2.70914V0.48293C8.35792 0.216365 8.14168 1.75781e-05 7.87506 1.75781e-05C7.60835 1.75781e-05 7.39213 0.216365 7.39213 0.48293V2.70914C7.39213 2.97571 7.60837 3.19204 7.87506 3.19204ZM7.87506 12.558C7.60835 12.558 7.39213 12.7744 7.39213 13.0409V15.2671C7.39213 15.5336 7.60837 15.75 7.87506 15.75C8.14168 15.75 8.35792 15.5336 8.35792 15.2671V13.0409C8.35792 12.7744 8.14168 12.558 7.87506 12.558ZM3.19192 7.87528C3.19192 7.60819 2.97573 7.39235 2.70901 7.39235H0.483106C0.216494 7.39235 0.000193359 7.60819 0.000193359 7.87528C0.000193359 8.14185 0.216494 8.35815 0.483106 8.35815H2.70901C2.97573 8.35815 3.19192 8.14185 3.19192 7.87528ZM15.2669 7.39235H13.0411C12.7744 7.39235 12.5583 7.60819 12.5583 7.87528C12.5583 8.14185 12.7744 8.35815 13.0411 8.35815H15.2669C15.5337 8.35815 15.7499 8.14185 15.7499 7.87528C15.7499 7.60819 15.5337 7.39235 15.2669 7.39235ZM3.8806 4.56349C3.97496 4.65766 4.09849 4.70498 4.22207 4.70498C4.3457 4.70498 4.46927 4.65766 4.56357 4.56349C4.75209 4.37516 4.75209 4.06898 4.56357 3.88064L2.98959 2.30685C2.80096 2.11804 2.49528 2.11804 2.30666 2.30685C2.11808 2.49519 2.11808 2.80086 2.30666 2.98967L3.8806 4.56347V4.56349ZM11.8695 11.1866C11.6809 10.9983 11.3752 10.9983 11.1866 11.1866C10.9979 11.3749 10.9979 11.6811 11.1866 11.8693L12.7604 13.4432C12.8547 13.5378 12.9783 13.5847 13.102 13.5847C13.2255 13.5847 13.3491 13.5378 13.4434 13.4432C13.632 13.2548 13.632 12.9491 13.4434 12.7603L11.8695 11.1866V11.1866ZM3.8806 11.1866L2.30666 12.7603C2.11808 12.9491 2.11808 13.2548 2.30666 13.4432C2.40098 13.5378 2.5245 13.5847 2.64818 13.5847C2.77175 13.5847 2.89529 13.5378 2.98959 13.4432L4.56357 11.8694C4.75209 11.6811 4.75209 11.3749 4.56357 11.1866C4.37496 10.9983 4.06928 10.9983 3.8806 11.1866ZM11.528 4.70498C11.6516 4.70498 11.7752 4.65766 11.8695 4.56349L13.4434 2.98969C13.632 2.80087 13.632 2.49521 13.4434 2.30687C13.2548 2.11805 12.9491 2.11805 12.7604 2.30687L11.1866 3.88065C10.9979 4.06899 10.9979 4.37516 11.1866 4.5635C11.2809 4.65768 11.4044 4.70498 11.528 4.70498ZM7.87506 10.9673C6.1699 10.9673 4.78276 9.57989 4.78276 7.87522C4.78276 6.1701 6.16992 4.78271 7.87506 4.78271C9.58013 4.78271 10.9674 6.1701 10.9674 7.87522C10.9674 9.57989 9.58013 10.9673 7.87506 10.9673ZM7.87506 3.8169C5.63736 3.8169 3.81694 5.63746 3.81694 7.87522C3.81694 10.1126 5.63736 11.9331 7.87506 11.9331C10.1127 11.9331 11.9332 10.1126 11.9332 7.87522C11.9332 5.63746 10.1127 3.8169 7.87506 3.8169ZM7.87506 5.47328C6.55058 5.47328 5.47307 6.55063 5.47307 7.87528C5.47307 8.14185 5.68937 8.35815 5.95599 8.35815C6.2227 8.35815 6.4389 8.14185 6.4389 7.87528C6.4389 7.08332 7.08317 6.43909 7.87507 6.43909C8.1417 6.43909 8.35794 6.22274 8.35794 5.95618C8.35794 5.68914 8.1417 5.47327 7.87507 5.47327L7.87506 5.47328Z" fill="var(--fill-0, #FFB84F)"/>
</g>
<defs>
<clipPath id="clip0_0_25">
<rect width="15.75" height="15.75" fill="white"/>
</clipPath>
</defs>
</svg>
