<svg preserveAspectRatio="none" width="100%" height="100%" overflow="visible" style="display: block;" viewBox="0 0 24 24" fill="none" xmlns="http://www.w3.org/2000/svg">
<g id="electric_vehicle">
<path id="Union" fill-rule="evenodd" clip-rule="evenodd" d="M14.5414 3.74809L11.8864 9.06371L11.2227 6.40309H9.23145L11.8864 1.08746L12.5502 3.74809H14.5414ZM19.2381 5.14878L20.8111 10.3848C21.6449 10.6127 22.2674 11.3743 22.2563 12.2803V18.1889C22.2563 18.9115 21.6671 19.5007 20.9445 19.5007V20.1566C20.9445 21.2405 20.0607 22.1243 18.9768 22.1243H17.665C16.5811 22.1243 15.6973 21.2405 15.6973 20.1566V19.5007H7.81545V20.1566C7.81545 21.2405 6.93166 22.1243 5.84776 22.1243H4.53596C3.45206 22.1243 2.56827 21.2405 2.56827 20.1566V19.5007C1.84567 19.5007 1.25647 18.9115 1.25647 18.1889V12.2803C1.25647 11.3743 1.87902 10.6127 2.71834 10.3848L4.29139 5.14878C4.54152 4.30946 5.29747 3.74249 6.17571 3.74249H7.82101V5.05429H6.17015C5.88111 5.05429 5.62542 5.24328 5.54204 5.5212L4.10796 10.307H19.416L17.9819 5.5212C17.8985 5.24328 17.6484 5.05429 17.3538 5.05429H15.7029V3.74249H17.3538C18.2264 3.74249 18.988 4.30946 19.2381 5.14878ZM5.85331 20.8181C6.21461 20.8181 6.50921 20.5235 6.50921 20.1622V19.5063H3.88562V20.1622C3.88562 20.5235 4.18022 20.8181 4.54152 20.8181H5.85331ZM18.988 20.8181C19.3493 20.8181 19.6438 20.5235 19.6438 20.1622V19.5063H17.0203V20.1622C17.0203 20.5235 17.3149 20.8181 17.6762 20.8181H18.988ZM20.9501 18.1889H2.56827V12.2803C2.56827 11.919 2.86286 11.6244 3.22416 11.6244H20.2942C20.6555 11.6244 20.9501 11.919 20.9501 12.2803V18.1889ZM5.99907 13.4513C4.90219 13.4513 4.00781 14.3457 4.00781 15.4425C4.00781 16.5394 4.90219 17.4338 5.99907 17.4338C7.09594 17.4338 7.99032 16.5394 7.99032 15.4425C7.99032 14.3457 7.09594 13.4513 5.99907 13.4513ZM5.99907 16.1119C5.63344 16.1119 5.33531 15.8138 5.33531 15.4482C5.33531 15.0825 5.63344 14.7844 5.99907 14.7844C6.36469 14.7844 6.66282 15.0825 6.66282 15.4482C6.66282 15.8138 6.36469 16.1119 5.99907 16.1119ZM18.362 13.4513C17.2651 13.4513 16.3707 14.3457 16.3707 15.4425C16.3707 16.5394 17.2651 17.4338 18.362 17.4338C19.4589 17.4338 20.3532 16.5394 20.3532 15.4425C20.3532 14.3457 19.4589 13.4513 18.362 13.4513ZM18.362 16.1119C17.9964 16.1119 17.6982 15.8138 17.6982 15.4482C17.6982 15.0825 17.9964 14.7844 18.362 14.7844C18.7276 14.7844 19.0257 15.0825 19.0257 15.4482C19.0257 15.8138 18.7276 16.1119 18.362 16.1119Z" fill="var(--fill-0, #2E384D)"/>
</g>
</svg>
