<svg preserveAspectRatio="none" width="100%" height="100%" overflow="visible" style="display: block;" viewBox="0 0 24 24" fill="none" xmlns="http://www.w3.org/2000/svg">
<g id="other_electric">
<path id="Vector" d="M21.934 10.634L21.9324 10.6324L13.3661 2.06637C13.0009 1.70107 12.5155 1.5 11.9991 1.5C11.4827 1.5 10.9972 1.70107 10.6319 2.06637L2.07008 10.6281C2.06719 10.631 2.06415 10.634 2.06142 10.6369C1.31161 11.391 1.31289 12.6146 2.06511 13.3668C2.40878 13.7107 2.86251 13.9097 3.34781 13.9306C3.36768 13.9326 3.38755 13.9335 3.40757 13.9335H3.74884V20.2374C3.74884 21.4851 4.76397 22.5 6.01159 22.5H9.36302C9.70284 22.5 9.97826 22.5 9.97826 22.5H14.0197C14.0197 22.5 14.2952 22.5 14.635 22.5H17.9864C19.2342 22.5 20.2492 21.4851 20.2492 20.2374V13.9335H20.5658C21.082 13.9335 21.5674 13.7325 21.9329 13.367C22.6859 12.6137 22.6862 11.3878 21.934 10.634ZM21.0628 12.497C20.9299 12.6298 20.7534 12.7031 20.5658 12.7031H19.6339C19.2941 12.7031 19.0187 12.9785 19.0187 13.3183V20.2374C19.0187 20.8065 18.5557 21.2696 17.9864 21.2696H15.2502C15.2502 21.2696 14.2352 21.2696 12.9875 21.2696H11.0107C9.76292 21.2696 8.74779 21.2696 8.74779 21.2696H6.01159C5.4425 21.2696 4.97931 20.8065 4.97931 20.2374V13.3183C4.97931 12.9785 4.70389 12.7031 4.36407 12.7031H3.44827C3.43865 12.7024 3.4292 12.7019 3.41943 12.7018C3.23614 12.6986 3.06423 12.6258 2.93541 12.4969C2.66144 12.2229 2.66144 11.777 2.93541 11.5029L2.93621 11.5021L11.5022 2.93635C11.6349 2.80353 11.8113 2.73047 11.9991 2.73047C12.1867 2.73047 12.3631 2.80353 12.4959 2.93635L21.06 11.5003C21.0613 11.5016 21.0628 11.5029 21.064 11.5041C21.3366 11.7786 21.3361 12.2235 21.0628 12.497Z" fill="var(--fill-0, #2E384D)"/>
<path id="Vector_2" d="M11.9383 7.51178C11.8424 7.48905 11.7415 7.49941 11.6522 7.54118C11.5628 7.58295 11.4902 7.65369 11.4461 7.74191L8.29614 14.0419C8.26272 14.1088 8.247 14.1831 8.25047 14.2578C8.25395 14.3325 8.27651 14.4051 8.316 14.4685C8.35549 14.532 8.41059 14.5843 8.47604 14.6205C8.5415 14.6566 8.61513 14.6754 8.68989 14.675H11.4002V18.4375C11.4002 18.536 11.4335 18.6316 11.4946 18.7089C11.5558 18.7861 11.6412 18.8405 11.7371 18.8632C11.8331 18.8859 11.9339 18.8755 12.0232 18.8338C12.1126 18.792 12.1852 18.7213 12.2293 18.633L15.3793 12.333C15.4126 12.2663 15.4283 12.1922 15.425 12.1177C15.4216 12.0432 15.3992 11.9708 15.36 11.9073C15.3208 11.8439 15.266 11.7916 15.2008 11.7553C15.1356 11.719 15.0623 11.6999 14.9877 11.7H12.2752V7.93747C12.2752 7.83895 12.2419 7.74331 12.1808 7.66606C12.1196 7.5888 12.0342 7.53444 11.9383 7.51178ZM14.2798 12.575L12.2752 16.5842V14.2375C12.2752 14.1214 12.2291 14.0102 12.1471 13.9281C12.065 13.8461 11.9537 13.8 11.8377 13.8H9.39558L11.4002 9.79072V12.1375C11.4002 12.2535 11.4463 12.3648 11.5283 12.4468C11.6104 12.5289 11.7217 12.575 11.8377 12.575H14.2798Z" fill="var(--fill-0, #2E384D)"/>
</g>
</svg>
