<svg preserveAspectRatio="none" width="100%" height="100%" overflow="visible" style="display: block;" viewBox="0 0 598 78.2266" fill="none" xmlns="http://www.w3.org/2000/svg">
<path id="green-fill" d="M0 0.265894C27.2199 0.265894 100.588 -0.332367 135.932 0.265894C171.276 0.864154 160.388 -0.332367 176.72 3.65604C192.968 7.64444 198.412 10.2369 217.424 20.2079C236.52 30.1789 250.088 42.1441 271.78 53.5111C293.556 64.6786 304.444 73.4531 326.22 76.6439C347.912 80.034 358.8 78.0398 380.576 70.063C402.268 62.0862 415.92 48.1268 434.932 36.7598C453.944 25.5923 462.068 20.2079 475.72 13.6271C489.288 6.84676 494.732 6.2485 502.856 3.65604C510.98 0.864155 497.412 0.864154 516.424 0.265894C535.52 -0.332367 581.668 0.265894 598 0.265894V0.265894H0Z" fill="var(--fill-0, #29B57A)" fill-opacity="0.1"/>
</svg>
