<svg preserveAspectRatio="none" width="100%" height="100%" overflow="visible" style="display: block;" viewBox="0 0 598 52.9943" fill="none" xmlns="http://www.w3.org/2000/svg">
<path id="blue-fill" d="M0 14.6943C10.888 15.6943 32.5801 18.1943 54.356 19.6943C76.1319 21.1943 87.0199 22.7943 108.712 22.1943C130.488 21.4943 141.376 20.6943 163.068 16.2943C184.844 11.9943 195.732 2.4943 217.424 0.494303C239.2 -1.5057 250.088 2.9943 271.78 6.2943C293.556 9.6943 304.444 14.6943 326.22 17.1943C347.912 19.6943 358.8 18.7943 380.576 18.7943C402.268 18.7943 413.156 18.6943 434.932 17.1943C456.624 15.6943 467.512 13.7943 489.288 11.2943C510.98 8.7943 521.868 3.2943 543.644 4.6943C565.42 5.9943 587.112 15.2943 598 17.9943V52.9943H0V14.6943Z" fill="var(--fill-0, #3B82F5)" fill-opacity="0.12"/>
</svg>
