<svg preserveAspectRatio="none" width="100%" height="100%" overflow="visible" style="display: block;" viewBox="0 0 598 84.2121" fill="none" xmlns="http://www.w3.org/2000/svg">
<path id="orange-fill" d="M0 0.162853C16.3319 0.162853 57.1199 -0.137147 81.5759 0.162853C106.032 0.462853 106.032 -1.13715 122.28 1.86285C138.612 4.86285 144.056 6.46285 163.068 15.1629C182.08 23.8629 195.732 34.1629 217.424 45.1629C239.2 56.1629 250.088 62.4628 271.78 70.1628C293.556 77.8628 304.444 81.8629 326.22 83.4629C347.912 85.1629 358.8 84.1629 380.576 78.4629C402.268 72.8629 413.156 65.8629 434.932 55.1629C456.624 44.4629 472.956 34.8629 489.288 25.1629C505.62 15.4629 505.62 11.6629 516.424 6.86285C527.312 1.96285 532.756 2.36285 543.644 0.962853C554.532 -0.337147 559.976 0.362853 570.78 0.162853C581.668 -0.0371475 592.556 0.162853 598 0.162853V0.162853H0Z" fill="var(--fill-0, #FF991A)" fill-opacity="0.18"/>
</svg>
