<svg preserveAspectRatio="none" width="100%" height="100%" overflow="visible" style="display: block;" viewBox="0 0 600.5 24.8216" fill="none" xmlns="http://www.w3.org/2000/svg">
<path id="blue-line" d="M1.25008 15.9425C12.138 16.9425 33.8302 19.4425 55.6061 20.9425C77.382 22.4425 88.27 24.0425 109.962 23.4425C131.738 22.7425 142.626 21.9425 164.318 17.5425C186.094 13.2425 196.982 3.74248 218.674 1.74248C240.45 -0.25752 251.338 4.24248 273.03 7.54248C294.806 10.9425 305.694 15.9425 327.47 18.4425C349.162 20.9425 360.05 20.0425 381.826 20.0425C403.518 20.0425 414.406 19.9425 436.182 18.4425C457.874 16.9425 468.762 15.0425 490.538 12.5425C512.23 10.0425 523.118 4.54248 544.894 5.94248C566.67 7.24248 588.362 16.5425 599.25 19.2425" stroke="var(--stroke-0, #186CDD)" stroke-width="2.5" stroke-linecap="round" stroke-linejoin="round"/>
</svg>
