<svg preserveAspectRatio="none" width="100%" height="100%" overflow="visible" style="display: block;" viewBox="0 0 600 80.2265" fill="none" xmlns="http://www.w3.org/2000/svg">
<path id="green-line" d="M1 1.26585C28.2199 1.26585 101.588 0.667593 136.932 1.26585C172.276 1.86411 161.388 0.667593 177.72 4.656C193.968 8.6444 199.412 11.2369 218.424 21.2079C237.52 31.1789 251.088 43.1441 272.78 54.5111C294.556 65.6786 305.444 74.4531 327.22 77.6438C348.912 81.034 359.8 79.0398 381.576 71.0629C403.268 63.0861 416.92 49.1267 435.932 37.7598C454.944 26.5922 463.068 21.2079 476.72 14.627C490.288 7.84672 495.732 7.24846 503.856 4.656C511.98 1.86411 498.412 1.86411 517.424 1.26585C536.52 0.667593 582.668 1.26585 599 1.26585" stroke="var(--stroke-0, #29B57A)" stroke-width="2" stroke-linecap="round" stroke-linejoin="round" stroke-dasharray="6 4"/>
</svg>
