<svg preserveAspectRatio="none" width="100%" height="100%" overflow="visible" style="display: block;" viewBox="0 0 600.5 86.712" fill="none" xmlns="http://www.w3.org/2000/svg">
<path id="orange-line" d="M1.25 1.41298C17.5819 1.41298 58.3699 1.11298 82.8259 1.41298C107.282 1.71298 107.282 0.112982 123.53 3.11298C139.862 6.11298 145.306 7.71298 164.318 16.413C183.33 25.113 196.982 35.413 218.674 46.413C240.45 57.413 251.338 63.713 273.03 71.413C294.806 79.113 305.694 83.113 327.47 84.713C349.162 86.413 360.05 85.413 381.826 79.713C403.518 74.113 414.406 67.113 436.182 56.413C457.874 45.713 474.206 36.113 490.538 26.413C506.87 16.713 506.87 12.913 517.674 8.11298C528.562 3.21298 534.006 3.61298 544.894 2.21298C555.782 0.912982 561.226 1.61298 572.03 1.41298C582.918 1.21298 593.806 1.41298 599.25 1.41298" stroke="var(--stroke-0, #FF991A)" stroke-width="2.5" stroke-linecap="round" stroke-linejoin="round"/>
</svg>
