<svg preserveAspectRatio="none" width="100%" height="100%" overflow="visible" style="display: block;" viewBox="0 0 86.5 116.439" fill="none" xmlns="http://www.w3.org/2000/svg">
<path id="Ellipse 210" d="M1.0315e-06 0C13.9377 1.66206e-07 27.669 3.36797 40.0249 9.81718C52.3808 16.2664 62.9953 25.6058 70.9647 37.0403C78.9341 48.4749 84.0225 61.6658 85.7965 75.4902C87.5705 89.3145 85.9776 103.363 81.1536 116.439L60.8652 108.954C64.4832 99.1471 65.6779 88.6109 64.3474 78.2426C63.0168 67.8744 59.2006 57.9811 53.2235 49.4053C47.2465 40.8294 39.2856 33.8248 30.0187 28.9879C20.7518 24.151 10.4533 21.625 7.73627e-07 21.625L1.0315e-06 0Z" fill="var(--fill-0, #3794FC)"/>
</svg>
