<svg preserveAspectRatio="none" width="100%" height="100%" overflow="visible" style="display: block;" viewBox="0 0 19.3137 19.3137" fill="none" xmlns="http://www.w3.org/2000/svg">
<g id="Frame 1000004704">
<path d="M0 4C0 1.79086 1.79086 0 4 0H15.3137C17.5229 0 19.3137 1.79086 19.3137 4V15.3137C19.3137 17.5229 17.5228 19.3137 15.3137 19.3137H4C1.79086 19.3137 0 17.5228 0 15.3137V4Z" fill="var(--fill-0, #EFEFEF)"/>
<path id="Vector" d="M9.08713 5.13945C9.08713 4.8248 9.3422 4.56973 9.65685 4.56973C9.9715 4.56973 10.2266 4.8248 10.2266 5.13945L10.2266 9.08713L14.1743 9.08713C14.4889 9.08713 14.744 9.3422 14.744 9.65685C14.744 9.97151 14.4889 10.2266 14.1743 10.2266L10.2266 10.2266L10.2266 14.1743C10.2266 14.4889 9.9715 14.744 9.65685 14.744C9.3422 14.744 9.08713 14.4889 9.08713 14.1743L9.08713 10.2266L5.13945 10.2266C4.8248 10.2266 4.56973 9.97151 4.56973 9.65685C4.56973 9.3422 4.8248 9.08713 5.13945 9.08713L9.08713 9.08713L9.08713 5.13945Z" fill="var(--fill-0, black)"/>
</g>
</svg>
