<svg preserveAspectRatio="none" width="100%" height="100%" overflow="visible" style="display: block;" viewBox="0 0 21 14.9764" fill="none" xmlns="http://www.w3.org/2000/svg">
<g id="Group">
<path id="Vector" d="M20.3577 0.00549586C19.9996 0.00549586 19.7094 0.263806 19.7094 0.58257V2.8469H18.9808V2.33028C18.9808 1.04423 17.8076 0 16.3689 0C15.5848 0 14.887 0.307773 14.4054 0.796912C13.9238 0.307773 13.226 0 12.4419 0C11.6577 0 10.96 0.307773 10.4783 0.796912C9.99672 0.307773 9.29899 0 8.51481 0C7.73063 0 7.0329 0.307773 6.55128 0.796912C6.06966 0.307773 5.37192 0 4.58775 0C3.14906 0 1.97588 1.04423 1.97588 2.33028V2.8469H0.648336C0.290207 2.8469 0 3.10521 0 3.42397C0 3.74274 0.290207 4.00105 0.648336 4.00105H1.96353V12.6462C1.96353 13.9322 3.13671 14.9764 4.5754 14.9764C5.35958 14.9764 6.05731 14.6687 6.53893 14.1795C7.02055 14.6687 7.71828 14.9764 8.50246 14.9764C9.28664 14.9764 9.98437 14.6687 10.466 14.1795C10.9476 14.6687 11.6453 14.9764 12.4295 14.9764C13.2137 14.9764 13.9114 14.6687 14.3931 14.1795C14.8747 14.6687 15.5724 14.9764 16.3566 14.9764C17.8014 14.9764 18.9746 13.9322 18.9746 12.6462V4.00654H20.3516C20.7097 4.00654 20.9999 3.74823 20.9999 3.42947V0.588066C21.0061 0.263805 20.7159 0.00549586 20.3577 0.00549586ZM17.678 4.00654V12.6517C17.678 13.2947 17.0914 13.8223 16.3628 13.8223C15.6342 13.8223 15.0476 13.3002 15.0476 12.6517V4.00654V2.8469V2.33028C15.0476 1.68725 15.6342 1.15964 16.3628 1.15964C17.0914 1.15964 17.678 1.68176 17.678 2.33028V2.8469V4.00654ZM13.7509 12.6462C13.7509 13.2892 13.1643 13.8168 12.4357 13.8168C11.7133 13.8168 11.1205 13.2947 11.1205 12.6462V4.00654V2.8469V2.33028C11.1205 1.68725 11.7071 1.15964 12.4357 1.15964C13.1581 1.15964 13.7509 1.68176 13.7509 2.33028V2.8469V4.00654V12.6462ZM9.81766 12.6462C9.81766 13.2892 9.23107 13.8168 8.50246 13.8168C7.78003 13.8168 7.18726 13.2947 7.18726 12.6462V4.00654V2.8469V2.33028C7.18726 1.68725 7.77385 1.15964 8.50246 1.15964C9.22489 1.15964 9.81766 1.68176 9.81766 2.33028V2.8469V4.00654V12.6462ZM5.89059 12.6462C5.89059 13.2892 5.304 13.8168 4.5754 13.8168C3.85297 13.8168 3.2602 13.2947 3.2602 12.6462V4.00654V2.8469V2.33028C3.2602 1.68725 3.84679 1.15964 4.5754 1.15964C5.29783 1.15964 5.89059 1.68176 5.89059 2.33028V2.8469V4.00654V12.6462Z" fill="var(--fill-0, #2E384D)"/>
</g>
</svg>
