<svg preserveAspectRatio="none" width="100%" height="100%" overflow="visible" style="display: block;" viewBox="0 0 15.4 21" fill="none" xmlns="http://www.w3.org/2000/svg">
<g id="icon">
<path id="Vector" d="M15.2087 3.06866C13.1843 1.09859 10.4989 0 7.70503 0C4.91118 0 2.22578 1.09859 0.201405 3.06866C0.0722991 3.19014 0 3.36444 0 3.54401V16.1461C0 16.3257 0.0722991 16.5 0.201405 16.6215C0.733321 17.1338 1.31171 17.588 1.92626 17.9842V20.3451C1.92626 20.7095 2.21546 21 2.56662 21C2.92296 21 3.20699 20.7042 3.20699 20.3451V18.6813C6.05764 20.0229 9.3421 20.0229 12.1928 18.6813V20.3451C12.1928 20.7095 12.4819 21 12.8331 21C13.1843 21 13.4735 20.7042 13.4735 20.3451V17.9842C14.0932 17.588 14.6716 17.1338 15.1983 16.6162C15.3274 16.4947 15.3997 16.3204 15.3997 16.1461V3.54401C15.4049 3.36444 15.3326 3.19014 15.2087 3.06866ZM14.1242 15.8556C12.3632 17.4771 10.0754 18.375 7.70503 18.375C5.33465 18.375 3.0469 17.4771 1.28589 15.8556V3.82923C3.0469 2.20775 5.33465 1.30986 7.70503 1.30986C10.0754 1.30986 12.3632 2.20775 14.1242 3.82923V15.8556Z" fill="var(--fill-0, #2E384D)"/>
<path id="Vector_2" d="M4.5083 9.82925V12.4807C4.5083 12.655 4.57544 12.8187 4.69421 12.9455C4.81299 13.0669 4.97825 13.1409 5.14867 13.1409H10.2561C10.4265 13.1409 10.5918 13.0722 10.7105 12.9455C10.8293 12.824 10.8965 12.655 10.8965 12.4807V9.82925C10.8965 9.65496 10.8293 9.49123 10.7105 9.36447C10.5918 9.24299 10.4265 9.16904 10.2561 9.16904H5.14867C4.7975 9.17432 4.5083 9.46482 4.5083 9.82925ZM5.79419 10.4842H9.61573V11.8257H5.79419V10.4842Z" fill="var(--fill-0, #2E384D)"/>
<path id="Vector_3" d="M7.13717 2.93658C6.72403 3.55454 5.75316 5.08623 5.75316 5.92073C5.74283 6.44362 5.94424 6.95066 6.30057 7.32566C6.66206 7.70066 7.15267 7.91193 7.66392 7.91193C8.17518 7.91193 8.67095 7.70066 9.02728 7.32566C9.38877 6.95066 9.58501 6.44362 9.57468 5.92073C9.57468 5.09151 8.60897 3.55982 8.19067 2.93658C8.06673 2.76756 7.87049 2.66721 7.65876 2.66721C7.45735 2.66721 7.26111 2.76756 7.13717 2.93658ZM8.29396 5.91545C8.28363 6.26404 8.00476 6.53869 7.66392 6.53869C7.32308 6.53869 7.04422 6.26404 7.03389 5.91545C7.17332 5.41897 7.38505 4.95418 7.66392 4.52637C7.94795 4.95418 8.15969 5.42425 8.29396 5.91545Z" fill="var(--fill-0, #2E384D)"/>
<path id="Vector_4" d="M7.25051 14.6302C7.13174 14.757 7.0646 14.9207 7.0646 15.095C7.0646 15.2693 7.13174 15.4383 7.25051 15.5598C7.50356 15.8133 7.91154 15.8133 8.15942 15.5598C8.41247 15.301 8.41247 14.8838 8.15942 14.6302C7.91154 14.3714 7.50356 14.3714 7.25051 14.6302Z" fill="var(--fill-0, #2E384D)"/>
<path id="Vector_5" d="M9.81703 14.6303C9.63628 14.8205 9.57947 15.1004 9.68276 15.3433C9.78088 15.5863 10.0133 15.7447 10.2767 15.7447C10.5349 15.7447 10.7673 15.5863 10.8706 15.3433C10.9687 15.1004 10.917 14.8152 10.7363 14.6303C10.4729 14.3874 10.0752 14.3874 9.81703 14.6303Z" fill="var(--fill-0, #2E384D)"/>
<path id="Vector_6" d="M4.68379 14.6304C4.4359 14.8892 4.4359 15.3064 4.68379 15.5599C4.80773 15.6814 4.96782 15.7501 5.13824 15.7501C5.34997 15.7501 5.55138 15.6392 5.67016 15.4543C5.78893 15.2694 5.80959 15.0423 5.72696 14.8416C5.64434 14.6409 5.46875 14.493 5.26218 14.4508C5.05045 14.4085 4.83355 14.4719 4.68379 14.6304Z" fill="var(--fill-0, #2E384D)"/>
</g>
</svg>
