<svg preserveAspectRatio="none" width="100%" height="100%" overflow="visible" style="display: block;" viewBox="0 0 48 48" fill="none" xmlns="http://www.w3.org/2000/svg">
<g id="material-symbols:energy-savings-leaf-rounded">
<path id="Vector" d="M21.3562 33.1071L31.7062 23.8821C32.0437 23.5821 32.1375 23.2259 31.9875 22.8134C31.8375 22.4009 31.5375 22.1571 31.0875 22.0821L22.9875 21.2946L27.825 14.6009C27.9375 14.4134 28.0035 14.2349 28.023 14.0654C28.0425 13.8959 27.9765 13.7369 27.825 13.5884C27.675 13.4009 27.4875 13.3169 27.2625 13.3364C27.0375 13.3559 26.8312 13.4399 26.6437 13.5884L16.35 22.8134C16.0125 23.1134 15.9187 23.4696 16.0687 23.8821C16.2187 24.2946 16.5187 24.5384 16.9687 24.6134L25.0687 25.4009L20.175 32.0946C20.0625 32.2821 20.0062 32.4599 20.0062 32.6279C20.0062 32.7959 20.0812 32.9556 20.2312 33.1071C20.3812 33.2586 20.5597 33.3336 20.7667 33.3321C20.9737 33.3306 21.1702 33.2556 21.3562 33.1071ZM24 41.3759C21.9 41.3759 19.9222 41.0474 18.0667 40.3904C16.2112 39.7334 14.514 38.8056 12.975 37.6071L9.88125 40.7009C9.65625 40.9259 9.4035 41.0946 9.123 41.2071C8.8425 41.3196 8.5515 41.3759 8.25 41.3759C7.6125 41.3759 7.0785 41.1599 6.648 40.7279C6.2175 40.2959 6.0015 39.7619 6 39.1259C6 38.8259 6.05625 38.5356 6.16875 38.2551C6.28125 37.9746 6.45 37.7211 6.675 37.4946L9.76875 34.4009C8.56875 32.8634 7.641 31.1669 6.9855 29.3114C6.33 27.4559 6.0015 25.4774 6 23.3759C6 18.3509 7.74375 14.0946 11.2312 10.6071C14.7187 7.1196 18.975 5.37585 24 5.37585H37.5C38.7375 5.37585 39.7972 5.8161 40.6792 6.6966C41.5612 7.5771 42.0015 8.63685 42 9.87585V23.3759C42 28.4009 40.2562 32.6571 36.7687 36.1446C33.2812 39.6321 29.025 41.3759 24 41.3759Z" fill="var(--fill-0, #FF5C00)"/>
</g>
</svg>
