<svg preserveAspectRatio="none" width="100%" height="100%" overflow="visible" style="display: block;" viewBox="0 0 21 21" fill="none" xmlns="http://www.w3.org/2000/svg">
<g id="icon">
<path id="Union" d="M14.79 19.0703C15.5839 18.6157 16.5752 18.6207 17.3691 19.0859L18.1963 19.5732C18.5851 19.8032 19.0726 19.8028 19.4668 19.5781L19.9756 19.2871C20.2065 19.1549 20.4926 19.1688 20.71 19.3223L20.7588 19.3564C20.9098 19.463 21 19.6365 21 19.8213C20.9999 20.0251 20.8907 20.2131 20.7139 20.3145L20.1133 20.6592C19.719 20.8839 19.2805 20.9961 18.8369 20.9961C18.3825 20.9961 17.9338 20.8779 17.5342 20.6426L16.707 20.1562C16.3128 19.9262 15.8249 19.9257 15.4307 20.1504L14.5439 20.6592C13.7445 21.1138 12.7588 21.108 11.9648 20.6426L11.1377 20.1562C10.7436 19.9263 10.2565 19.9259 9.8623 20.1504L8.97461 20.6592C8.1752 21.1137 7.18938 21.1079 6.39551 20.6426L5.56934 20.1562C5.17509 19.9262 4.68722 19.9257 4.29297 20.1504L3.40625 20.6592C2.60677 21.1192 1.61529 21.1133 0.821289 20.6426L0.28125 20.3262C0.107291 20.2242 3.07191e-05 20.0376 0 19.8359C0 19.643 0.0977482 19.4631 0.259766 19.3584L0.316406 19.3223C0.535419 19.1809 0.815113 19.1749 1.04004 19.3066L1.49512 19.5732C1.88386 19.8031 2.37145 19.8028 2.76562 19.5781L3.65234 19.0703C4.45182 18.6156 5.4433 18.6205 6.2373 19.0859L7.06348 19.5732C7.45222 19.8032 7.93975 19.8027 8.33398 19.5781L9.22168 19.0703C10.021 18.6158 11.0118 18.6208 11.8057 19.0859L12.6328 19.5732C13.0216 19.8032 13.5091 19.8028 13.9033 19.5781L14.79 19.0703ZM14.79 16.0918C15.5839 15.6372 16.5752 15.6422 17.3691 16.1074L18.1963 16.5947C18.5851 16.8247 19.0726 16.8243 19.4668 16.5996L19.9756 16.3086C20.2063 16.1765 20.4927 16.1896 20.71 16.3428L20.7588 16.3779C20.9098 16.4845 21 16.658 21 16.8428C20.9999 17.0466 20.8907 17.2346 20.7139 17.3359L20.1133 17.6807C19.719 17.9053 19.2805 18.0176 18.8369 18.0176C18.3825 18.0176 17.9338 17.8993 17.5342 17.6641L16.707 17.1777C16.3128 16.9477 15.8249 16.9472 15.4307 17.1719L14.5439 17.6807C13.7445 18.1353 12.7588 18.1294 11.9648 17.6641L11.1377 17.1777C10.7435 16.9478 10.2565 16.9474 9.8623 17.1719L8.97461 17.6807C8.1752 18.1351 7.18938 18.1294 6.39551 17.6641L5.56934 17.1777C5.17508 16.9477 4.68723 16.9472 4.29297 17.1719L3.40625 17.6807C2.60677 18.1407 1.61529 18.1348 0.821289 17.6641L0.28125 17.3477C0.107309 17.2457 5.22774e-05 17.059 0 16.8574C0 16.6645 0.0977648 16.4846 0.259766 16.3799L0.316406 16.3438C0.535431 16.2024 0.815099 16.1964 1.04004 16.3281L1.49512 16.5947C1.88386 16.8246 2.37146 16.8242 2.76562 16.5996L3.65234 16.0918C4.45182 15.6371 5.4433 15.642 6.2373 16.1074L7.06348 16.5947C7.45221 16.8247 7.93975 16.8242 8.33398 16.5996L9.22168 16.0918C10.021 15.6372 11.0118 15.6422 11.8057 16.1074L12.6328 16.5947C13.0216 16.8247 13.5091 16.8243 13.9033 16.5996L14.79 16.0918ZM11.4678 0C11.6577 0 11.8386 0.083079 11.9619 0.227539L11.9951 0.266602C12.2059 0.513966 12.1803 0.884508 11.9375 1.10059C11.8281 1.19783 11.6864 1.25195 11.54 1.25195H10.6836C9.48985 1.25195 8.52051 2.19905 8.52051 3.36523V4.38672H13.8916V3.36523C13.8916 1.50911 15.436 0.00023873 17.3359 0H17.9932C18.2536 0 18.4902 0.151405 18.5996 0.387695L18.6201 0.431641C18.701 0.606383 18.6899 0.810143 18.5898 0.974609C18.4851 1.14644 18.2979 1.25186 18.0967 1.25195H17.3359C16.1424 1.25219 15.1738 2.19919 15.1738 3.36523V12.9404C15.4161 12.8501 15.6694 12.7978 15.9238 12.7832C16.4224 12.7546 16.927 12.8708 17.3691 13.1328L18.1963 13.6201C18.585 13.85 19.0726 13.8496 19.4668 13.625L20.0098 13.3135C20.2214 13.1923 20.4827 13.1978 20.6895 13.3271L20.7197 13.3467C20.8938 13.4557 20.9999 13.6462 21 13.8516C20.9999 14.0652 20.8855 14.2629 20.7002 14.3691L20.1123 14.7061C19.3129 15.1605 18.3271 15.1548 17.5332 14.6895L16.707 14.2031C16.3128 13.9731 15.8249 13.9726 15.4307 14.1973L14.5439 14.7061C13.7445 15.1607 12.7588 15.1548 11.9648 14.6895L11.1377 14.2031C10.7436 13.9732 10.2565 13.9729 9.8623 14.1973L8.97461 14.7061C8.58052 14.9306 8.14255 15.0429 7.69922 15.043C7.24472 15.043 6.79525 14.9248 6.39551 14.6895L5.56836 14.2031C5.17419 13.9732 4.68714 13.9727 4.29297 14.1973L3.40527 14.7061C2.6059 15.1605 1.61491 15.1552 0.832031 14.6846L0.298828 14.3721C0.120013 14.2673 0.00915061 14.0764 0.00585938 13.8691C0.00248521 13.6545 0.115263 13.4546 0.300781 13.3467L0.333984 13.3271C0.540006 13.2073 0.795338 13.2076 1.00098 13.3281L1.48926 13.6143C1.87804 13.8443 2.36551 13.8448 2.75977 13.6201L3.64648 13.1113C4.44047 12.6566 5.43159 12.6626 6.22559 13.1279L7.05273 13.6143C7.11297 13.6517 7.17355 13.6783 7.23926 13.7051V3.36523C7.23926 1.50896 8.78346 0 10.6836 0H11.4678ZM8.52051 13.5127L9.21582 13.1172C9.2339 13.1068 9.25222 13.0968 9.27051 13.0869C10.055 12.6631 11.019 12.678 11.7949 13.1328L12.6221 13.6201C13.0106 13.8444 13.4976 13.8498 13.8916 13.6309V10.1162H8.52051V13.5127ZM8.51465 8.86426H13.8867V5.63867H8.51465V8.86426Z" fill="var(--fill-0, #2E384D)"/>
</g>
</svg>
