<svg preserveAspectRatio="none" width="100%" height="100%" overflow="visible" style="display: block;" viewBox="0 0 24 24" fill="none" xmlns="http://www.w3.org/2000/svg">
<g id="always_on">
<path id="Union" d="M18.5898 1.5C20.7459 1.5 22.5 3.2541 22.5 5.41016V18.5898C22.5 20.7459 20.7459 22.5 18.5898 22.5H5.41016C3.2541 22.5 1.50002 20.7459 1.5 18.5898V5.41016C1.50001 3.2541 3.2541 1.5 5.41016 1.5H18.5898ZM5.41016 2.73047C3.93258 2.73047 2.73048 3.93258 2.73047 5.41016V18.5898C2.73048 20.0674 3.93258 21.2695 5.41016 21.2695H18.5898C20.0674 21.2695 21.2695 20.0674 21.2695 18.5898V5.41016C21.2695 3.93258 20.0674 2.73047 18.5898 2.73047H5.41016ZM7.63574 7.12109C7.88879 6.89463 8.27729 6.91608 8.50391 7.16895C8.73056 7.42213 8.7092 7.81147 8.45605 8.03809C7.33019 9.04612 6.68457 10.4902 6.68457 12C6.68457 14.931 9.069 17.3154 12 17.3154C14.9311 17.3154 17.3154 14.931 17.3154 12C17.3154 10.4901 16.6699 9.04604 15.5439 8.03809C15.2908 7.81143 15.2695 7.42208 15.4961 7.16895C15.7227 6.91605 16.1122 6.8946 16.3652 7.12109C17.7515 8.36214 18.5459 10.1407 18.5459 12C18.5459 15.6095 15.6095 18.5459 12 18.5459C8.39052 18.5458 5.45411 15.6095 5.4541 12C5.4541 10.1406 6.24933 8.36227 7.63574 7.12109ZM12 5.4541C12.3398 5.4541 12.6152 5.72956 12.6152 6.06934V12.7549C12.6152 13.0947 12.3398 13.3701 12 13.3701C11.6602 13.3701 11.3848 13.0947 11.3848 12.7549V6.06934C11.3848 5.72956 11.6602 5.4541 12 5.4541Z" fill="var(--fill-0, #2E384D)"/>
</g>
</svg>
