<svg preserveAspectRatio="none" width="100%" height="100%" overflow="visible" style="display: block;" viewBox="0 0 48 48" fill="none" xmlns="http://www.w3.org/2000/svg">
<g id="icomoon-free:price-tag">
<path id="Vector" d="M42.8315 3.37598H27.1286C26.0504 3.37598 24.5403 4.00147 23.7787 4.76306L4.30973 24.232C4.12733 24.4143 3.98263 24.6307 3.88391 24.869C3.78519 25.1072 3.73438 25.3625 3.73438 25.6204C3.73437 25.8783 3.78519 26.1336 3.88391 26.3719C3.98263 26.6101 4.12733 26.8265 4.30973 27.0088L21.1615 43.8606C21.3438 44.043 21.5603 44.1877 21.7985 44.2864C22.0367 44.3852 22.2921 44.436 22.5499 44.436C22.8078 44.436 23.0631 44.3852 23.3014 44.2864C23.5396 44.1877 23.756 44.043 23.9383 43.8606L43.4073 24.3917C44.1715 23.6275 44.7944 22.12 44.7944 21.0417V5.33884C44.7923 4.81889 44.5848 4.32083 44.2172 3.95317C43.8495 3.58551 43.3515 3.37804 42.8315 3.37598ZM33.0172 19.0789C32.5015 19.0787 31.9909 18.9769 31.5145 18.7794C31.0381 18.5819 30.6053 18.2925 30.2408 17.9277C29.8762 17.563 29.5871 17.1299 29.3899 16.6534C29.1927 16.1769 29.0913 15.6662 29.0915 15.1505C29.0917 14.6348 29.1934 14.1242 29.3909 13.6478C29.5884 13.1714 29.8778 12.7386 30.2426 12.3741C30.6074 12.0095 31.0404 11.7204 31.5169 11.5232C31.9934 11.326 32.5041 11.2246 33.0198 11.2248C34.0613 11.2251 35.0601 11.6392 35.7963 12.3759C36.5325 13.1126 36.9459 14.1116 36.9455 15.1531C36.9452 16.1946 36.5311 17.1934 35.7944 17.9296C35.0577 18.6658 34.0587 19.0792 33.0172 19.0789Z" fill="var(--fill-0, #14843C)"/>
</g>
</svg>
