<svg preserveAspectRatio="none" width="100%" height="100%" overflow="visible" style="display: block;" viewBox="0 0 24 24" fill="none" xmlns="http://www.w3.org/2000/svg">
<g id="cooling">
<path id="Cooling (Stroke)" fill-rule="evenodd" clip-rule="evenodd" d="M1.5 5.89773C1.5 4.70216 2.48133 3.75 3.67067 3.75H20.3293C21.5187 3.75 22.5 4.70216 22.5 5.89773V12.6094C22.5 13.8049 21.5187 14.7571 20.3293 14.7571H3.67067C2.48133 14.7571 1.5 13.8049 1.5 12.6094V5.89773ZM3.67067 5.0625C3.18724 5.0625 2.8125 5.44585 2.8125 5.89773V11.2074H21.1875V5.89773C21.1875 5.44585 20.8128 5.0625 20.3293 5.0625H3.67067ZM21.1875 12.5199H2.8125V12.6094C2.8125 13.0612 3.18724 13.4446 3.67067 13.4446H20.3293C20.8128 13.4446 21.1875 13.0612 21.1875 12.6094V12.5199ZM17.3005 9.53693H15.7861V8.22443H17.3005V9.53693ZM19.5721 9.53693H18.0577V8.22443H19.5721V9.53693ZM4.94283 18.0235C5.47818 17.2247 5.66466 16.2421 5.66466 15.5923H6.97716C6.97716 16.434 6.74718 17.6887 6.03313 18.7542C5.29551 19.8549 4.05651 20.723 2.15625 20.723V19.4105C3.58772 19.4105 4.43106 18.7872 4.94283 18.0235ZM12.6562 15.5923V20.8125H11.3438V15.5923H12.6562ZM17.9669 18.7542C17.2528 17.6887 17.0228 16.434 17.0228 15.5923H18.3353C18.3353 16.2421 18.5218 17.2247 19.0572 18.0235C19.5689 18.7872 20.4123 19.4105 21.8438 19.4105V20.723C19.9435 20.723 18.7045 19.8549 17.9669 18.7542Z" fill="var(--fill-0, #2E384D)"/>
</g>
</svg>
