<svg preserveAspectRatio="none" width="100%" height="100%" overflow="visible" style="display: block;" viewBox="0 0 24 24" fill="none" xmlns="http://www.w3.org/2000/svg">
<g id="ep:warn-triangle-filled">
<path id="Vector" d="M21.7734 17.7141L13.4672 4.76484C13.3056 4.52537 13.0868 4.33005 12.8306 4.19662C12.5743 4.06319 12.2888 3.99587 12 4.00078C11.7112 3.99587 11.4257 4.06319 11.1694 4.19662C10.9132 4.33005 10.6944 4.52537 10.5328 4.76484L2.22656 17.7141C2.07738 17.9401 1.99785 18.205 1.99785 18.4758C1.99785 18.7466 2.07738 19.0115 2.22656 19.2375C2.38814 19.477 2.60697 19.6723 2.86319 19.8057C3.11942 19.9392 3.40491 20.0065 3.69375 20.0016H20.3063C20.9109 20.0016 21.4711 19.7109 21.7734 19.2398C22.0758 18.7688 22.0758 18.1852 21.7734 17.7164M13.0008 18H10.9992V16.0008H13.0008V18ZM13.0008 7.99922V15H10.9992V7.99922H13.0008Z" fill="var(--fill-0, black)"/>
</g>
</svg>
