<svg preserveAspectRatio="none" width="100%" height="100%" overflow="visible" style="display: block;" viewBox="0 0 16.4252 24.9645" fill="none" xmlns="http://www.w3.org/2000/svg">
<g id="Group">
<path id="Vector" d="M4.01694 21.374C4.01694 22.2662 4.13651 23.6198 6.57988 24.0254C6.60813 24.4331 6.8115 24.9645 8.21346 24.9645C9.62767 24.9645 9.82163 24.436 9.84704 24.0274C12.3206 23.6256 12.41 22.2682 12.41 21.3729V19.5688L4.01708 19.5698L4.01694 21.374Z" fill="var(--fill-0, white)"/>
<path id="Vector_2" d="M16.4252 7.91351C16.4252 5.81297 14.7992 0 8.21309 0C1.94131 0 0 5.81299 0 7.91351C0 11.27 1.0743 12.6695 2.11377 14.0231C2.82652 14.9515 3.55623 15.9608 3.83774 17.3738H3.52044V19.0219H12.9067V17.3738H12.5903C12.8718 15.9784 13.5968 14.9729 14.3049 14.0485C15.3481 12.6862 16.4252 11.278 16.4252 7.91376L16.4252 7.91351ZM8.74506 12.1829V17.3738H7.6811V12.1829L3.81896 8.43053L4.54678 7.62697L8.21319 11.1884L11.8786 7.62697L12.6064 8.43053L8.74506 12.1829Z" fill="var(--fill-0, white)"/>
</g>
</svg>
