<svg preserveAspectRatio="none" width="100%" height="100%" overflow="visible" style="display: block;" viewBox="0 0 82.7366 16.9681" fill="none" xmlns="http://www.w3.org/2000/svg">
<g id="Energy Co.">
<path d="M8.36268 11.0195V13.094H1.72903V11.0195H8.36268ZM2.56787 0.18617V13.094H0V0.18617H2.56787ZM7.49817 5.44326V7.46454H1.72903V5.44326H7.49817ZM8.35412 0.18617V2.2695H1.72903V0.18617H8.35412Z" fill="var(--fill-0, white)"/>
<path d="M12.1203 5.54964V13.094H9.65517V3.50177H11.9663L12.1203 5.54964ZM11.7608 7.96099H11.0932C11.0932 7.25177 11.1816 6.61347 11.3585 6.0461C11.5354 5.47281 11.7836 4.98522 12.1032 4.58333C12.4228 4.17553 12.8022 3.86525 13.2416 3.65248C13.6867 3.43381 14.1832 3.32447 14.731 3.32447C15.1647 3.32447 15.5613 3.38948 15.9208 3.5195C16.2803 3.64953 16.5884 3.85638 16.8452 4.14007C17.1077 4.42376 17.3074 4.79905 17.4444 5.26596C17.587 5.73286 17.6584 6.30319 17.6584 6.97695V13.094H15.1761V6.96808C15.1761 6.54255 15.119 6.21158 15.0049 5.97518C14.8908 5.73877 14.7224 5.57329 14.4999 5.47872C14.283 5.37825 14.0148 5.32801 13.6953 5.32801C13.3643 5.32801 13.0761 5.39598 12.8308 5.53191C12.5911 5.66785 12.3914 5.85697 12.2316 6.09929C12.0775 6.3357 11.9605 6.61347 11.8807 6.93262C11.8008 7.25177 11.7608 7.59456 11.7608 7.96099Z" fill="var(--fill-0, white)"/>
<path d="M23.7956 13.2713C23.0765 13.2713 22.4317 13.1531 21.8611 12.9167C21.2905 12.6743 20.8054 12.3404 20.406 11.9149C20.0122 11.4894 19.7098 10.9959 19.4987 10.4344C19.2875 9.86702 19.182 9.26418 19.182 8.62589V8.27128C19.182 7.54433 19.2818 6.87943 19.4815 6.2766C19.6813 5.67376 19.9666 5.15071 20.3375 4.70745C20.7141 4.26418 21.1706 3.92435 21.707 3.68794C22.2434 3.44563 22.8483 3.32447 23.5216 3.32447C24.1779 3.32447 24.7599 3.43676 25.2678 3.66135C25.7757 3.88593 26.2008 4.20508 26.5432 4.61879C26.8913 5.03251 27.1537 5.52896 27.3306 6.10816C27.5075 6.68144 27.596 7.31974 27.596 8.02305V9.08688H20.2348V7.38475H25.1736V7.18972C25.1736 6.83511 25.1109 6.51891 24.9853 6.24113C24.8655 5.95745 24.6829 5.73286 24.4375 5.56738C24.1921 5.40189 23.8783 5.31915 23.496 5.31915C23.1707 5.31915 22.8911 5.39303 22.6571 5.54078C22.4232 5.68853 22.232 5.89539 22.0836 6.16135C21.941 6.4273 21.8326 6.74054 21.7584 7.10106C21.6899 7.45567 21.6557 7.84574 21.6557 8.27128V8.62589C21.6557 9.01005 21.707 9.36466 21.8097 9.68972C21.9182 10.0148 22.0694 10.2955 22.2634 10.5319C22.4631 10.7683 22.7028 10.9515 22.9824 11.0816C23.2677 11.2116 23.5901 11.2766 23.9496 11.2766C24.3947 11.2766 24.8084 11.1879 25.1908 11.0106C25.5788 10.8274 25.9126 10.5526 26.1922 10.1862L27.3906 11.5337C27.1965 11.8233 26.9312 12.1011 26.5945 12.367C26.2636 12.633 25.8641 12.8517 25.3962 13.023C24.9283 13.1885 24.3947 13.2713 23.7956 13.2713Z" fill="var(--fill-0, white)"/>
<path d="M31.4649 5.59397V13.094H28.9998V3.50177H31.3194L31.4649 5.59397ZM34.2553 3.43972L34.2125 5.80674C34.0927 5.78901 33.9472 5.77423 33.776 5.76241C33.6105 5.74468 33.4593 5.73582 33.3223 5.73582C32.9742 5.73582 32.6718 5.7831 32.415 5.87766C32.1639 5.96631 31.9528 6.09929 31.7816 6.2766C31.6161 6.4539 31.4906 6.66962 31.405 6.92376C31.3251 7.1779 31.2795 7.46749 31.268 7.79255L30.7716 7.63298C30.7716 7.01241 30.8315 6.44208 30.9513 5.92199C31.0712 5.39598 31.2452 4.93794 31.4735 4.54787C31.7074 4.1578 31.9927 3.85638 32.3294 3.64362C32.6661 3.43085 33.0513 3.32447 33.485 3.32447C33.6219 3.32447 33.7617 3.33629 33.9044 3.35993C34.047 3.37766 34.164 3.40426 34.2553 3.43972Z" fill="var(--fill-0, white)"/>
<path d="M41.1115 3.50177H43.3456V12.7748C43.3456 13.6495 43.1573 14.3913 42.7806 15C42.4097 15.6147 41.8904 16.0786 41.2228 16.3918C40.5552 16.711 39.7791 16.8706 38.8946 16.8706C38.5066 16.8706 38.0957 16.8174 37.662 16.711C37.234 16.6046 36.8232 16.4391 36.4294 16.2145C36.0414 15.99 35.7162 15.7063 35.4537 15.3635L36.5407 13.8564C36.826 14.1992 37.157 14.4651 37.5336 14.6543C37.9103 14.8493 38.3268 14.9468 38.7833 14.9468C39.2284 14.9468 39.605 14.8611 39.9132 14.6897C40.2213 14.5242 40.4581 14.279 40.6236 13.9539C40.7891 13.6348 40.8719 13.2476 40.8719 12.7926V5.71808L41.1115 3.50177ZM34.8802 8.41312V8.22695C34.8802 7.49409 34.9658 6.8292 35.137 6.23227C35.3139 5.62943 35.5621 5.11229 35.8816 4.68085C36.2069 4.24941 36.6006 3.91548 37.0629 3.67908C37.5251 3.44267 38.0472 3.32447 38.6293 3.32447C39.2455 3.32447 39.762 3.44267 40.1785 3.67908C40.5951 3.91548 40.9375 4.25236 41.2057 4.68972C41.4739 5.12116 41.6822 5.63239 41.8305 6.2234C41.9846 6.80851 42.1044 7.44976 42.19 8.14716V8.55496C42.1044 9.22281 41.976 9.84338 41.8048 10.4167C41.6337 10.99 41.4083 11.4923 41.1286 11.9238C40.849 12.3493 40.5009 12.6803 40.0844 12.9167C39.6735 13.1531 39.1828 13.2713 38.6121 13.2713C38.0415 13.2713 37.5251 13.1501 37.0629 12.9078C36.6063 12.6655 36.2155 12.3256 35.8902 11.8883C35.5649 11.4509 35.3139 10.9368 35.137 10.3457C34.9658 9.75473 34.8802 9.11052 34.8802 8.41312ZM37.3453 8.22695V8.41312C37.3453 8.8091 37.3824 9.17849 37.4566 9.52128C37.5308 9.86407 37.6449 10.1684 37.799 10.4344C37.9588 10.6944 38.1556 10.8983 38.3896 11.0461C38.6293 11.1879 38.9117 11.2589 39.237 11.2589C39.6878 11.2589 40.0558 11.1613 40.3412 10.9663C40.6265 10.7654 40.8405 10.4905 40.9831 10.1418C41.1258 9.79314 41.2085 9.39125 41.2314 8.93617V7.77482C41.2199 7.40248 41.1714 7.06856 41.0858 6.77305C41.0002 6.47163 40.8804 6.21454 40.7263 6.00177C40.5723 5.78901 40.3725 5.62352 40.1272 5.50532C39.8818 5.38712 39.5908 5.32801 39.2541 5.32801C38.9288 5.32801 38.6464 5.40485 38.4067 5.55851C38.1727 5.70626 37.9759 5.91016 37.8161 6.17021C37.662 6.43026 37.545 6.73759 37.4652 7.0922C37.3853 7.4409 37.3453 7.81915 37.3453 8.22695Z" fill="var(--fill-0, white)"/>
<path d="M48.0105 12.0124L50.4671 3.50177H53.112L49.3886 14.539C49.3087 14.7813 49.2003 15.0414 49.0633 15.3191C48.9321 15.5969 48.7523 15.8599 48.5241 16.1082C48.3015 16.3623 48.0191 16.5691 47.6767 16.7287C47.34 16.8883 46.9263 16.9681 46.4356 16.9681C46.2016 16.9681 46.0104 16.9533 45.8621 16.9238C45.7137 16.8942 45.5368 16.8528 45.3314 16.7996V14.9291C45.3942 14.9291 45.4598 14.9291 45.5283 14.9291C45.5967 14.935 45.6624 14.9379 45.7251 14.9379C46.0504 14.9379 46.3157 14.8995 46.5212 14.8227C46.7266 14.7459 46.8921 14.6277 47.0176 14.4681C47.1432 14.3144 47.243 14.1135 47.3172 13.8652L48.0105 12.0124ZM46.9834 3.50177L48.9949 10.4521L49.3458 13.156L47.6681 13.3422L44.3385 3.50177H46.9834Z" fill="var(--fill-0, white)"/>
<path d="M65.8401 8.81206H68.3994C68.348 9.68085 68.1169 10.4521 67.706 11.1259C67.3009 11.7996 66.7331 12.3256 66.0027 12.7039C65.278 13.0822 64.4049 13.2713 63.3835 13.2713C62.5846 13.2713 61.8684 13.1294 61.235 12.8457C60.6016 12.5561 60.0595 12.1424 59.6087 11.6046C59.1636 11.0668 58.8241 10.4167 58.5901 9.65425C58.3562 8.89184 58.2392 8.03782 58.2392 7.0922V6.19681C58.2392 5.25118 58.359 4.39716 58.5987 3.63475C58.8441 2.86643 59.1921 2.21336 59.643 1.67553C60.0995 1.13771 60.6444 0.723995 61.2778 0.434397C61.9112 0.144799 62.6188 0 63.4006 0C64.4392 0 65.3151 0.195035 66.0284 0.585106C66.7474 0.975177 67.3038 1.513 67.6975 2.19858C68.0969 2.88416 68.3366 3.6643 68.4165 4.53901H65.8486C65.8201 4.01891 65.7202 3.5786 65.549 3.21808C65.3779 2.85165 65.1182 2.57683 64.7701 2.39362C64.4277 2.20449 63.9712 2.10993 63.4006 2.10993C62.9726 2.10993 62.5989 2.19267 62.2793 2.35816C61.9597 2.52364 61.6915 2.77482 61.4747 3.1117C61.2579 3.44858 61.0952 3.87411 60.9868 4.3883C60.8841 4.89657 60.8327 5.4935 60.8327 6.17908V7.0922C60.8327 7.76005 60.8812 8.34811 60.9782 8.85638C61.0753 9.35875 61.2236 9.78428 61.4233 10.133C61.6288 10.4758 61.8913 10.7358 62.2108 10.9131C62.5361 11.0845 62.927 11.1702 63.3835 11.1702C63.9199 11.1702 64.3621 11.0816 64.7102 10.9043C65.0583 10.7269 65.3236 10.4639 65.5062 10.1152C65.6946 9.76655 65.8058 9.33215 65.8401 8.81206Z" fill="var(--fill-0, white)"/>
<path d="M69.5378 8.39539V8.20922C69.5378 7.50591 69.6348 6.85875 69.8288 6.26773C70.0228 5.6708 70.3053 5.15366 70.6762 4.71631C71.0471 4.27896 71.5036 3.93912 72.0457 3.69681C72.5878 3.44858 73.2098 3.32447 73.9117 3.32447C74.6136 3.32447 75.2385 3.44858 75.7863 3.69681C76.3341 3.93912 76.7934 4.27896 77.1644 4.71631C77.541 5.15366 77.8263 5.6708 78.0203 6.26773C78.2143 6.85875 78.3113 7.50591 78.3113 8.20922V8.39539C78.3113 9.09279 78.2143 9.73995 78.0203 10.3369C77.8263 10.9279 77.541 11.445 77.1644 11.8883C76.7934 12.3256 76.3369 12.6655 75.7948 12.9078C75.2527 13.1501 74.6307 13.2713 73.9288 13.2713C73.227 13.2713 72.6021 13.1501 72.0543 12.9078C71.5122 12.6655 71.0528 12.3256 70.6762 11.8883C70.3053 11.445 70.0228 10.9279 69.8288 10.3369C69.6348 9.73995 69.5378 9.09279 69.5378 8.39539ZM72.0029 8.20922V8.39539C72.0029 8.79728 72.0372 9.17258 72.1057 9.52128C72.1741 9.86998 72.2826 10.1773 72.4309 10.4433C72.585 10.7033 72.7847 10.9072 73.0301 11.055C73.2755 11.2027 73.575 11.2766 73.9288 11.2766C74.2712 11.2766 74.5651 11.2027 74.8105 11.055C75.0559 10.9072 75.2527 10.7033 75.4011 10.4433C75.5495 10.1773 75.6579 9.86998 75.7263 9.52128C75.8005 9.17258 75.8376 8.79728 75.8376 8.39539V8.20922C75.8376 7.81915 75.8005 7.45272 75.7263 7.10993C75.6579 6.76123 75.5466 6.4539 75.3925 6.18794C75.2442 5.91608 75.0473 5.70331 74.8019 5.54964C74.5565 5.39598 74.2598 5.31915 73.9117 5.31915C73.5636 5.31915 73.2669 5.39598 73.0215 5.54964C72.7819 5.70331 72.585 5.91608 72.4309 6.18794C72.2826 6.4539 72.1741 6.76123 72.1057 7.10993C72.0372 7.45272 72.0029 7.81915 72.0029 8.20922Z" fill="var(--fill-0, white)"/>
<path d="M79.9462 11.8617C79.9462 11.4835 80.0717 11.1673 80.3228 10.9131C80.5796 10.659 80.9191 10.5319 81.3414 10.5319C81.7637 10.5319 82.1004 10.659 82.3514 10.9131C82.6082 11.1673 82.7366 11.4835 82.7366 11.8617C82.7366 12.24 82.6082 12.5561 82.3514 12.8103C82.1004 13.0644 81.7637 13.1915 81.3414 13.1915C80.9191 13.1915 80.5796 13.0644 80.3228 12.8103C80.0717 12.5561 79.9462 12.24 79.9462 11.8617Z" fill="var(--fill-0, white)"/>
</g>
</svg>
