<svg preserveAspectRatio="none" width="100%" height="100%" overflow="visible" style="display: block;" viewBox="0 0 14.125 14" fill="none" xmlns="http://www.w3.org/2000/svg">
<g id="Energy Insights">
<path id="Union" d="M6.47168 0C9.63772 5.22317e-05 12.279 2.29697 12.833 5.31836H13.7061C13.8194 5.31838 13.9231 5.38434 13.9717 5.48828C14.0205 5.59208 14.0046 5.71448 13.9316 5.80273L12.4609 7.57617C12.4047 7.64303 12.3225 7.68157 12.2354 7.68164C12.1484 7.68164 12.0648 7.64344 12.0088 7.57617L10.5381 5.80273C10.4658 5.71449 10.4495 5.59205 10.498 5.48828C10.5473 5.38465 10.6507 5.31836 10.7646 5.31836H11.6299C11.0931 2.95376 8.98644 1.18183 6.47168 1.18164C3.55223 1.18164 1.17676 3.56743 1.17676 6.5C1.17676 9.43287 3.55194 11.8175 6.47168 11.8184C8.35589 11.8183 10.1128 10.7992 11.0576 9.16016C11.2203 8.87713 11.5805 8.78128 11.8623 8.94434C12.1431 9.10812 12.239 9.46998 12.0762 9.75195C10.9219 11.7553 8.77403 13 6.47168 13C2.90317 13 0 10.0839 0 6.5C6.43778e-08 2.91611 2.90317 0 6.47168 0ZM4.42285 6.11816C4.82991 6.11823 5.15911 6.49841 5.15918 6.96777V9.0918C5.15918 9.56152 4.82996 9.94134 4.42285 9.94141C4.0157 9.94141 3.68555 9.56156 3.68555 9.0918V6.96777C3.68562 6.49837 4.01575 6.11816 4.42285 6.11816ZM6.63086 4.58789C7.03771 4.58789 7.36816 5.0238 7.36816 5.56152V8.96777C7.36811 9.50577 7.03792 9.94141 6.63086 9.94141C6.22381 9.94138 5.89458 9.50575 5.89453 8.96777V5.56152C5.89453 5.02381 6.22378 4.58791 6.63086 4.58789ZM8.84277 3.82324C9.24991 3.8233 9.57992 4.24386 9.58008 4.76367V8.99902C9.58008 9.51932 9.25001 9.94037 8.84277 9.94043C8.43575 9.94043 8.10645 9.51936 8.10645 8.99902V4.76367C8.1066 4.24382 8.43584 3.82324 8.84277 3.82324Z" fill="var(--fill-0, #262E40)"/>
</g>
</svg>
