<svg preserveAspectRatio="none" width="100%" height="100%" overflow="visible" style="display: block;" viewBox="0 0 14 14" fill="none" xmlns="http://www.w3.org/2000/svg">
<g id="Reco" clip-path="url(#clip0_0_168)">
<path id="Path" fill-rule="evenodd" clip-rule="evenodd" d="M8.22924 9.40935C9.07215 8.99311 9.73757 8.42652 10.2252 7.70938C10.7127 6.99239 10.9565 6.21158 10.9565 5.36693C10.9565 4.52224 10.7127 3.74137 10.225 3.02435C9.73744 2.30733 9.07213 1.74068 8.22911 1.32434C7.38609 0.90806 6.46918 0.7 5.47824 0.7C4.48738 0.7 3.57047 0.908187 2.7274 1.32434C1.88441 1.74065 1.21907 2.3073 0.731489 3.02435C0.243857 3.74149 0 4.52224 0 5.36696C0 6.09001 0.18444 6.77089 0.552746 7.40892C0.921026 8.04683 1.42686 8.58471 2.0701 9.02216C2.01826 9.16812 1.96508 9.30164 1.9106 9.42334C1.85609 9.54485 1.7913 9.66173 1.71602 9.77423C1.6408 9.88677 1.5825 9.97482 1.54096 10.0384C1.49945 10.1022 1.43202 10.192 1.33858 10.3073C1.24518 10.4228 1.18549 10.4987 1.1596 10.5351C1.1596 10.529 1.14921 10.5427 1.12844 10.5762C1.10765 10.6096 1.09598 10.6247 1.09342 10.6219C1.0908 10.6186 1.08042 10.6338 1.06226 10.6672C1.04411 10.7007 1.03501 10.7173 1.03501 10.7173L1.01552 10.7628C1.00784 10.7811 1.00255 10.7991 0.999986 10.8174C0.997369 10.8355 0.996061 10.8554 0.996061 10.8766C0.996061 10.8978 0.998623 10.9175 1.00391 10.9358C1.01429 11.0147 1.04411 11.0784 1.09339 11.1272C1.14264 11.1758 1.19576 11.2 1.25289 11.2H1.27625C1.53559 11.1575 1.7587 11.1089 1.94543 11.0541C2.74435 10.8112 3.46551 10.4221 4.10877 9.88741C4.57564 9.98465 5.03217 10.0332 5.47829 10.0332C6.46923 10.0337 7.38625 9.82566 8.22924 9.40935Z" fill="var(--fill-0, #262E40)"/>
<path id="Path_2" fill-rule="evenodd" clip-rule="evenodd" d="M13.4491 9.69171C13.8167 9.08688 14.0004 8.43739 14.0004 7.74273C14.0004 7.03071 13.806 6.36467 13.418 5.7454C13.0297 5.1262 12.5017 4.61096 11.8341 4.2C11.9531 4.63407 12.0126 5.07395 12.0126 5.51973C12.0126 6.29528 11.8394 7.03038 11.4924 7.72503C11.1456 8.41948 10.6487 9.03297 10.0018 9.56557C9.40134 10.0518 8.71811 10.425 7.95202 10.6855C7.18614 10.9459 6.38641 11.0762 5.55307 11.0762C5.39785 11.0762 5.17008 11.0648 4.86992 11.0417C5.91023 11.8055 7.13178 12.1877 8.53439 12.1877C8.97957 12.1877 9.435 12.1413 9.90088 12.0487C10.5426 12.5582 11.2622 12.9285 12.0592 13.1601C12.2455 13.2124 12.4681 13.2586 12.7269 13.299C12.789 13.3048 12.8461 13.2846 12.8978 13.2382C12.9495 13.192 12.9832 13.1285 12.9987 13.0475C12.9962 13.0128 12.9987 12.9937 13.0065 12.9909C13.0141 12.9882 13.0128 12.9693 13.0026 12.9346C12.9923 12.8998 12.9871 12.8824 12.9871 12.8824L12.9677 12.8391C12.9624 12.8277 12.9536 12.8117 12.9406 12.7915C12.9276 12.7714 12.9173 12.7567 12.9095 12.7481C12.9019 12.7395 12.8903 12.7249 12.8747 12.7048C12.8592 12.6847 12.8488 12.6716 12.8436 12.6658C12.8177 12.631 12.7582 12.5587 12.6651 12.4487C12.5719 12.3388 12.5047 12.2534 12.4633 12.1927C12.4219 12.1319 12.3636 12.048 12.2886 11.9408C12.2136 11.8338 12.1488 11.7224 12.0945 11.6066C12.0401 11.4909 11.9871 11.3635 11.9353 11.2246C12.5771 10.8075 13.0817 10.2967 13.4491 9.69171Z" fill="var(--fill-0, #262E40)"/>
</g>
<defs>
<clipPath id="clip0_0_168">
<rect width="14" height="14" fill="white"/>
</clipPath>
</defs>
</svg>
