<svg preserveAspectRatio="none" width="100%" height="100%" overflow="visible" style="display: block;" viewBox="0 0 14 14" fill="none" xmlns="http://www.w3.org/2000/svg">
<g id="Group">
<path id="Vector" d="M14 2.35934V1.03103C14 0.46302 13.5647 0.000589798 13.0295 0.000589798L0.970542 0C0.435312 0 0 0.46243 0 1.03044V2.35875L14 2.35934ZM11.9865 1.10299C12.2307 1.10299 12.4295 1.31593 12.4295 1.57898C12.4295 1.84146 12.2313 2.05497 11.9865 2.05497C11.7416 2.05497 11.5435 1.84203 11.5435 1.57898C11.544 1.3165 11.7422 1.10299 11.9865 1.10299ZM10.653 1.10299C10.8979 1.10299 11.096 1.31593 11.096 1.57898C11.096 1.84146 10.8979 2.05497 10.653 2.05497C10.4088 2.05497 10.21 1.84203 10.21 1.57898C10.21 1.3165 10.4088 1.10299 10.653 1.10299ZM9.31964 1.10299C9.56392 1.10299 9.76263 1.31593 9.76263 1.57898C9.76263 1.84146 9.56446 2.05497 9.31964 2.05497C9.0748 2.05497 8.87664 1.84203 8.87664 1.57898C8.87664 1.3165 9.07481 1.10299 9.31964 1.10299Z" fill="var(--fill-0, #262E40)"/>
<path id="Vector_2" d="M0 3.05567V12.9696C0 13.5376 0.435326 14 0.970542 14H13.0295C13.5647 14 14 13.5376 14 12.9696L13.9995 3.05567H0ZM3.66156 5.51179C3.53475 5.37554 3.53475 5.15494 3.66156 5.01929C3.78837 4.88303 3.99368 4.88303 4.11994 5.01929L4.43119 5.35371L4.74244 5.01929C4.8687 4.88303 5.07456 4.88303 5.20081 5.01929C5.32762 5.15495 5.32762 5.37614 5.20081 5.51179L4.88956 5.84622L5.20081 6.18065C5.32762 6.3169 5.32762 6.53751 5.20081 6.67316C5.13768 6.74099 5.05423 6.7752 4.97135 6.7752C4.88846 6.7752 4.80556 6.74099 4.74189 6.67316L4.43064 6.33873L4.11939 6.67316C4.05626 6.74099 3.97281 6.7752 3.88993 6.7752C3.80704 6.7752 3.72414 6.74099 3.66047 6.67316C3.53366 6.5375 3.53366 6.31631 3.66047 6.18065L3.97172 5.84622L3.66156 5.51179ZM5.20137 10.8474C5.32818 10.9837 5.32818 11.2043 5.20137 11.34C5.13824 11.4078 5.0548 11.442 4.97191 11.442C4.88902 11.442 4.80613 11.4078 4.74245 11.34L4.4312 11.0055L4.11995 11.34C4.05682 11.4078 3.97337 11.442 3.89049 11.442C3.8076 11.442 3.7247 11.4078 3.66103 11.34C3.53422 11.2037 3.53422 10.9831 3.66103 10.8474L3.97228 10.513L3.66103 10.1786C3.53422 10.0423 3.53422 9.82173 3.66103 9.68608C3.78784 9.54982 3.99315 9.54982 4.1194 9.68608L4.43065 10.0205L4.7419 9.68608C4.86871 9.54982 5.07402 9.54982 5.20028 9.68608C5.32708 9.82233 5.32708 10.0429 5.20028 10.1786L4.88903 10.513L5.20137 10.8474ZM5.3474 7.78914L4.5635 8.97353C4.5613 8.97648 4.55856 8.97825 4.55691 8.9812C4.54593 8.99654 4.53385 9.01069 4.52068 9.02367C4.51574 9.02839 4.51135 9.03488 4.50586 9.039C4.50421 9.04018 4.50256 9.04254 4.50147 9.04372C4.49762 9.04726 4.49323 9.04785 4.48939 9.0508C4.46688 9.0685 4.44328 9.08206 4.41803 9.09268C4.40924 9.09622 4.40101 9.09976 4.39277 9.10271C4.36313 9.11273 4.33239 9.11863 4.3011 9.11922H4.3H4.2989C4.27036 9.11922 4.24181 9.11391 4.21436 9.10507C4.20613 9.10271 4.19844 9.09976 4.19021 9.09622C4.1677 9.08737 4.14629 9.07616 4.12598 9.06201C4.12159 9.05847 4.11665 9.05788 4.11281 9.05493C4.11061 9.05316 4.10896 9.0508 4.10622 9.04903C4.09963 9.04372 4.09304 9.03665 4.08701 9.03075C4.07493 9.01954 4.06395 9.00775 4.05407 8.99536C4.05187 8.99241 4.04913 8.99064 4.04693 8.98769L3.52762 8.2852C3.41619 8.1348 3.43979 7.91538 3.57977 7.79564C3.71976 7.6759 3.92397 7.70068 4.03541 7.85167L4.28683 8.19142L4.82042 7.38512C4.92417 7.22881 5.12674 7.19166 5.27276 7.30313C5.41713 7.4152 5.45117 7.63285 5.34742 7.78916L5.3474 7.78914ZM10.2199 10.8616H6.32845C6.1495 10.8616 6.00402 10.7053 6.00402 10.513C6.00402 10.3208 6.14894 10.1645 6.32845 10.1645H10.2195C10.3985 10.1645 10.5439 10.3208 10.5439 10.513C10.5439 10.7053 10.399 10.8616 10.2201 10.8616H10.2199ZM10.2199 8.52827H6.32845C6.1495 8.52827 6.00402 8.37196 6.00402 8.17968C6.00402 7.9874 6.14894 7.83109 6.32845 7.83109H10.2195C10.3985 7.83109 10.5439 7.9874 10.5439 8.17968C10.5439 8.37196 10.399 8.52827 10.2201 8.52827H10.2199ZM10.2199 6.1943H6.32845C6.1495 6.1943 6.00402 6.03859 6.00402 5.84571C6.00402 5.65343 6.14894 5.49712 6.32845 5.49712H10.2195C10.3985 5.49712 10.5439 5.65283 10.5439 5.84571C10.5439 6.03858 10.399 6.1943 10.2201 6.1943H10.2199Z" fill="var(--fill-0, #262E40)"/>
</g>
</svg>
